<svg width="36" height="36" viewBox="0 0 36 36" fill="none" xmlns="http://www.w3.org/2000/svg">
<path d="M24.4215 16.0786C24.5262 16.1831 24.6093 16.3072 24.6661 16.4439C24.7228 16.5806 24.752 16.7271 24.752 16.8751C24.752 17.023 24.7228 17.1696 24.6661 17.3062C24.6093 17.4429 24.5262 17.5671 24.4215 17.6716L17.6715 24.4216C17.567 24.5263 17.4428 24.6094 17.3061 24.6662C17.1695 24.7229 17.0229 24.7521 16.875 24.7521C16.727 24.7521 16.5805 24.7229 16.4438 24.6662C16.3071 24.6094 16.183 24.5263 16.0785 24.4216L12.7035 21.0466C12.5989 20.942 12.5159 20.8178 12.4593 20.6811C12.4027 20.5445 12.3735 20.398 12.3735 20.2501C12.3735 20.1021 12.4027 19.9557 12.4593 19.819C12.5159 19.6823 12.5989 19.5582 12.7035 19.4536C12.9147 19.2423 13.2012 19.1236 13.5 19.1236C13.6479 19.1236 13.7944 19.1528 13.931 19.2094C14.0677 19.266 14.1919 19.349 14.2965 19.4536L16.875 22.0343L22.8285 16.0786C22.933 15.9738 23.0571 15.8907 23.1938 15.834C23.3305 15.7772 23.477 15.748 23.625 15.748C23.7729 15.748 23.9195 15.7772 24.0561 15.834C24.1928 15.8907 24.317 15.9738 24.4215 16.0786Z" fill="#FDFDFD"/>
<path d="M7.875 0C8.17337 0 8.45952 0.118526 8.6705 0.329505C8.88147 0.540483 9 0.826631 9 1.125V2.25H27V1.125C27 0.826631 27.1185 0.540483 27.3295 0.329505C27.5405 0.118526 27.8266 0 28.125 0C28.4234 0 28.7095 0.118526 28.9205 0.329505C29.1315 0.540483 29.25 0.826631 29.25 1.125V2.25H31.5C32.6935 2.25 33.8381 2.72411 34.682 3.56802C35.5259 4.41193 36 5.55653 36 6.75V31.5C36 32.6935 35.5259 33.8381 34.682 34.682C33.8381 35.5259 32.6935 36 31.5 36H4.5C3.30653 36 2.16193 35.5259 1.31802 34.682C0.474106 33.8381 0 32.6935 0 31.5V6.75C0 5.55653 0.474106 4.41193 1.31802 3.56802C2.16193 2.72411 3.30653 2.25 4.5 2.25H6.75V1.125C6.75 0.826631 6.86853 0.540483 7.0795 0.329505C7.29048 0.118526 7.57663 0 7.875 0ZM2.25 9V31.5C2.25 32.0967 2.48705 32.669 2.90901 33.091C3.33097 33.5129 3.90326 33.75 4.5 33.75H31.5C32.0967 33.75 32.669 33.5129 33.091 33.091C33.5129 32.669 33.75 32.0967 33.75 31.5V9H2.25Z" fill="#FDFDFD"/>
</svg>
