<svg width="36" height="44" viewBox="0 0 36 44" fill="none" xmlns="http://www.w3.org/2000/svg">
<path fill-rule="evenodd" clip-rule="evenodd" d="M18 20C12.4772 20 8 15.5228 8 10C8 4.47715 12.4772 0 18 0C23.5228 0 28 4.47715 28 10C28 15.5228 23.5228 20 18 20ZM18 2C13.5817 2 10 5.58172 10 10C10 14.4183 13.5817 18 18 18C22.4183 18 26 14.4183 26 10C26 5.58172 22.4183 2 18 2Z" fill="#D3FFDF"/>
<path fill-rule="evenodd" clip-rule="evenodd" d="M36 44L0 44L2.38419e-07 42C9.53674e-07 37.2261 1.89642 32.6477 5.27208 29.2721C8.64773 25.8964 13.2261 24 18 24C22.7739 24 27.3523 25.8964 30.7279 29.2721C34.1036 32.6477 36 37.2261 36 42V44ZM2.12543 40C2.56707 36.494 4.16104 33.2115 6.68629 30.6863C9.68687 27.6857 13.7565 26 18 26C22.2435 26 26.3131 27.6857 29.3137 30.6863C31.839 33.2115 33.4329 36.494 33.8746 40C33.9577 40.6599 34 41.3278 34 42L2 42C2 41.3278 2.0423 40.6599 2.12543 40Z" fill="#D3FFDF"/>
</svg>
