<svg width="37" height="36" viewBox="0 0 37 36" fill="none" xmlns="http://www.w3.org/2000/svg">
<path d="M10.2845 18.7843C10.2064 18.7062 10.2064 18.5795 10.2845 18.5014L11.9302 16.8557C12.0083 16.7776 12.135 16.7776 12.2131 16.8557L16.4302 21.0728C16.5083 21.151 16.635 21.151 16.7131 21.0728L26.0731 11.7128C26.1512 11.6347 26.2778 11.6347 26.3559 11.7128L28.0016 13.3586C28.0798 13.4367 28.0798 13.5633 28.0016 13.6414L16.7131 24.93C16.635 25.0081 16.5083 25.0081 16.4302 24.93L10.2845 18.7843Z" fill="#FDFDFD"/>
<path d="M19.1431 35.8C19.1431 35.9105 19.2332 36.0001 19.3437 35.9989C24.0274 35.9465 27.8999 34.0562 31.2281 30.7279C34.6038 27.3523 36.5002 22.7739 36.5002 18C36.5002 13.2261 34.6038 8.64773 31.2281 5.27208C27.8999 1.94382 24.0274 0.0535461 19.3437 0.00112045C19.2332 -0.000115842 19.1431 0.0895431 19.1431 0.2V2.37143C19.1431 2.48189 19.2332 2.5713 19.3436 2.5727C23.3547 2.62357 26.5878 4.20321 29.4424 7.05782C32.3444 9.95987 33.9748 13.8959 33.9748 18C33.9748 22.1041 32.3444 26.0401 29.4424 28.9422C26.5878 31.7968 23.3547 33.3764 19.3436 33.4273C19.2332 33.4287 19.1431 33.5181 19.1431 33.6286V35.8Z" fill="#FDFDFD"/>
<path d="M17.8521 35.794C17.8521 35.9044 17.7624 35.9941 17.6519 35.9928C15.3913 35.9671 13.7285 35.5022 11.6067 34.6234C9.48497 33.7445 7.95623 32.8726 6.33812 31.2908C6.25913 31.2136 6.25912 31.0868 6.33723 31.0087L7.87726 29.4687C7.95536 29.3906 8.08196 29.3908 8.1611 29.4678C9.53602 30.8065 10.7844 31.4925 12.5932 32.2418C14.402 32.991 15.7355 33.3951 17.652 33.4212C17.7624 33.4227 17.8521 33.5121 17.8521 33.6225L17.8521 35.794Z" fill="#FDFDFD"/>
<path d="M5.43159 30.1046C5.35349 30.1827 5.22665 30.1826 5.14944 30.1036C3.57062 28.4884 2.74901 27.01 1.87017 24.8883C0.991318 22.7665 0.526846 21.1036 0.50113 18.843C0.499873 18.7325 0.589543 18.6428 0.7 18.6428H2.87143C2.98189 18.6428 3.07128 18.7325 3.07274 18.8429C3.09823 20.7606 3.49371 22.0953 4.2434 23.9052C4.99308 25.7151 5.62991 26.9148 6.966 28.2871C7.04305 28.3663 7.04325 28.4929 6.96514 28.571L5.43159 30.1046Z" fill="#FDFDFD"/>
<path d="M0.7 17.3632C0.589543 17.3632 0.499873 17.2735 0.50113 17.1631C0.526846 14.9025 0.991318 13.2396 1.87017 11.1179C2.74901 8.9962 3.57059 7.51755 5.14941 5.90233C5.22662 5.82335 5.35345 5.82332 5.43156 5.90141L6.96405 7.43372C7.04217 7.51183 7.04198 7.63844 6.96492 7.71759C5.62865 9.09016 4.99152 10.2902 4.24176 12.1003C3.49197 13.9104 3.09811 15.2452 3.07274 17.1631C3.07128 17.2736 2.98189 17.3632 2.87143 17.3632H0.7Z" fill="#FDFDFD"/>
<path d="M6.33708 4.98394C6.25897 4.90583 6.25899 4.779 6.33798 4.70179C7.95607 3.12008 9.48447 2.24903 11.6062 1.37017C13.728 0.491319 15.3908 0.0268474 17.6514 0.00113182C17.7619 -0.00012459 17.8516 0.0895451 17.8516 0.200002L17.8516 2.37143C17.8516 2.48189 17.7619 2.57128 17.6515 2.57276C15.7344 2.59853 14.4004 2.99814 12.591 3.74761C10.7816 4.49709 9.53329 5.18275 8.15798 6.5218C8.07884 6.59885 7.95224 6.59904 7.87414 6.52094L6.33708 4.98394Z" fill="#FDFDFD"/>
</svg>
