<svg width="76" height="76" viewBox="0 0 76 76" fill="none" xmlns="http://www.w3.org/2000/svg">
<path d="M26.125 33.25C25.4951 33.25 24.891 33.5002 24.4456 33.9456C24.0002 34.391 23.75 34.9951 23.75 35.625C23.75 36.2549 24.0002 36.859 24.4456 37.3044C24.891 37.7498 25.4951 38 26.125 38H49.875C50.5049 38 51.109 37.7498 51.5544 37.3044C51.9998 36.859 52.25 36.2549 52.25 35.625C52.25 34.9951 51.9998 34.391 51.5544 33.9456C51.109 33.5002 50.5049 33.25 49.875 33.25H26.125ZM23.75 45.125C23.75 44.4951 24.0002 43.891 24.4456 43.4456C24.891 43.0002 25.4951 42.75 26.125 42.75H49.875C50.5049 42.75 51.109 43.0002 51.5544 43.4456C51.9998 43.891 52.25 44.4951 52.25 45.125C52.25 45.7549 51.9998 46.359 51.5544 46.8044C51.109 47.2498 50.5049 47.5 49.875 47.5H26.125C25.4951 47.5 24.891 47.2498 24.4456 46.8044C24.0002 46.359 23.75 45.7549 23.75 45.125ZM23.75 54.625C23.75 53.9951 24.0002 53.391 24.4456 52.9456C24.891 52.5002 25.4951 52.25 26.125 52.25H35.625C36.2549 52.25 36.859 52.5002 37.3044 52.9456C37.7498 53.391 38 53.9951 38 54.625C38 55.2549 37.7498 55.859 37.3044 56.3044C36.859 56.7498 36.2549 57 35.625 57H26.125C25.4951 57 24.891 56.7498 24.4456 56.3044C24.0002 55.859 23.75 55.2549 23.75 54.625Z" fill="#FDFDFD"/>
<path d="M45.125 0H19C16.4804 0 14.0641 1.00089 12.2825 2.78249C10.5009 4.56408 9.5 6.98044 9.5 9.5V66.5C9.5 69.0196 10.5009 71.4359 12.2825 73.2175C14.0641 74.9991 16.4804 76 19 76H57C59.5196 76 61.9359 74.9991 63.7175 73.2175C65.4991 71.4359 66.5 69.0196 66.5 66.5V21.375L45.125 0ZM45.125 4.75V14.25C45.125 16.1397 45.8757 17.9519 47.2119 19.2881C48.5481 20.6243 50.3603 21.375 52.25 21.375H61.75V66.5C61.75 67.7598 61.2496 68.968 60.3588 69.8588C59.468 70.7496 58.2598 71.25 57 71.25H19C17.7402 71.25 16.532 70.7496 15.6412 69.8588C14.7504 68.968 14.25 67.7598 14.25 66.5V9.5C14.25 8.24022 14.7504 7.03204 15.6412 6.14124C16.532 5.25044 17.7402 4.75 19 4.75H45.125Z" fill="#FDFDFD"/>
</svg>
