<svg width="40" height="52" viewBox="0 0 40 52" fill="none" xmlns="http://www.w3.org/2000/svg">
<path d="M24.875 0H7C5.27609 0 3.62279 0.68482 2.40381 1.90381C1.18482 3.12279 0.5 4.77609 0.5 6.5V45.5C0.5 47.2239 1.18482 48.8772 2.40381 50.0962C3.62279 51.3152 5.27609 52 7 52H33C34.7239 52 36.3772 51.3152 37.5962 50.0962C38.8152 48.8772 39.5 47.2239 39.5 45.5V14.625L24.875 0ZM24.875 3.25V9.75C24.875 11.0429 25.3886 12.2829 26.3029 13.1971C27.2171 14.1114 28.4571 14.625 29.75 14.625H36.25V45.5C36.25 46.362 35.9076 47.1886 35.2981 47.7981C34.6886 48.4076 33.8619 48.75 33 48.75H7C6.13805 48.75 5.3114 48.4076 4.7019 47.7981C4.09241 47.1886 3.75 46.362 3.75 45.5V6.5C3.75 5.63805 4.09241 4.8114 4.7019 4.2019C5.3114 3.59241 6.13805 3.25 7 3.25H24.875Z" fill="#D3FFDF"/>
</svg>
