<svg width="20" height="17" viewBox="0 0 20 17" fill="none" xmlns="http://www.w3.org/2000/svg">
<path d="M1.875 0.75C1.44402 0.75 1.0307 0.921205 0.725952 1.22595C0.421205 1.5307 0.25 1.94402 0.25 2.375C0.25 2.80598 0.421205 3.2193 0.725952 3.52405C1.0307 3.82879 1.44402 4 1.875 4H18.125C18.556 4 18.9693 3.82879 19.274 3.52405C19.5788 3.2193 19.75 2.80598 19.75 2.375C19.75 1.94402 19.5788 1.5307 19.274 1.22595C18.9693 0.921205 18.556 0.75 18.125 0.75H1.875ZM0.25 8.875C0.25 8.44402 0.421205 8.0307 0.725952 7.72595C1.0307 7.4212 1.44402 7.25 1.875 7.25H18.125C18.556 7.25 18.9693 7.4212 19.274 7.72595C19.5788 8.0307 19.75 8.44402 19.75 8.875C19.75 9.30598 19.5788 9.7193 19.274 10.024C18.9693 10.3288 18.556 10.5 18.125 10.5H1.875C1.44402 10.5 1.0307 10.3288 0.725952 10.024C0.421205 9.7193 0.25 9.30598 0.25 8.875ZM0.25 15.375C0.25 14.944 0.421205 14.5307 0.725952 14.226C1.0307 13.9212 1.44402 13.75 1.875 13.75H8.375C8.80598 13.75 9.2193 13.9212 9.52405 14.226C9.82879 14.5307 10 14.944 10 15.375C10 15.806 9.82879 16.2193 9.52405 16.524C9.2193 16.8288 8.80598 17 8.375 17H1.875C1.44402 17 1.0307 16.8288 0.725952 16.524C0.421205 16.2193 0.25 15.806 0.25 15.375Z" fill="#D3FFDF"/>
</svg>
