<svg width="20" height="13" viewBox="0 0 20 13" fill="none" xmlns="http://www.w3.org/2000/svg">
<path fill-rule="evenodd" clip-rule="evenodd" d="M18.7501 6.50006C18.7501 6.3343 18.6843 6.17533 18.5671 6.05812C18.4499 5.94091 18.2909 5.87506 18.1251 5.87506H3.38389L7.31764 1.94256C7.37575 1.88445 7.42185 1.81546 7.45329 1.73954C7.48474 1.66361 7.50093 1.58224 7.50093 1.50006C7.50093 1.41788 7.48474 1.3365 7.45329 1.26058C7.42185 1.18465 7.37575 1.11567 7.31764 1.05756C7.25953 0.999447 7.19054 0.953352 7.11462 0.921903C7.0387 0.890454 6.95732 0.874268 6.87514 0.874268C6.79296 0.874268 6.71159 0.890454 6.63566 0.921903C6.55974 0.953352 6.49075 0.999447 6.43264 1.05756L1.43264 6.05756C1.37444 6.11561 1.32826 6.18458 1.29675 6.26052C1.26524 6.33645 1.24902 6.41785 1.24902 6.50006C1.24902 6.58227 1.26524 6.66367 1.29675 6.7396C1.32826 6.81553 1.37444 6.8845 1.43264 6.94256L6.43264 11.9426C6.49075 12.0007 6.55974 12.0468 6.63566 12.0782C6.71159 12.1097 6.79296 12.1258 6.87514 12.1258C6.95732 12.1258 7.0387 12.1097 7.11462 12.0782C7.19054 12.0468 7.25953 12.0007 7.31764 11.9426C7.37575 11.8844 7.42185 11.8155 7.45329 11.7395C7.48474 11.6636 7.50093 11.5822 7.50093 11.5001C7.50093 11.4179 7.48474 11.3365 7.45329 11.2606C7.42185 11.1847 7.37575 11.1157 7.31764 11.0576L3.38389 7.12506H18.1251C18.2909 7.12506 18.4499 7.05921 18.5671 6.942C18.6843 6.82479 18.7501 6.66582 18.7501 6.50006Z" fill="#D3FFDF" stroke="#D3FFDF"/>
</svg>
