<svg width="36" height="36" viewBox="0 0 36 36" fill="none" xmlns="http://www.w3.org/2000/svg">
<path d="M24.4215 16.0785C24.5263 16.183 24.6094 16.3071 24.6661 16.4438C24.7228 16.5805 24.752 16.727 24.752 16.875C24.752 17.023 24.7228 17.1695 24.6661 17.3062C24.6094 17.4429 24.5263 17.567 24.4215 17.6715L17.6715 24.4215C17.567 24.5263 17.4429 24.6094 17.3062 24.6661C17.1695 24.7228 17.023 24.752 16.875 24.752C16.727 24.752 16.5805 24.7228 16.4438 24.6661C16.3071 24.6094 16.183 24.5263 16.0785 24.4215L12.7035 21.0465C12.5989 20.9419 12.5159 20.8177 12.4593 20.6811C12.4027 20.5444 12.3736 20.3979 12.3736 20.25C12.3736 20.1021 12.4027 19.9556 12.4593 19.8189C12.5159 19.6823 12.5989 19.5581 12.7035 19.4535C12.9147 19.2423 13.2013 19.1236 13.5 19.1236C13.6479 19.1236 13.7944 19.1527 13.9311 19.2093C14.0677 19.2659 14.1919 19.3489 14.2965 19.4535L16.875 22.0343L22.8285 16.0785C22.933 15.9737 23.0571 15.8906 23.1938 15.8339C23.3305 15.7772 23.477 15.748 23.625 15.748C23.773 15.748 23.9195 15.7772 24.0562 15.8339C24.1929 15.8906 24.317 15.9737 24.4215 16.0785Z" fill="#555555"/>
<path d="M7.875 0C8.17337 0 8.45952 0.118526 8.6705 0.329505C8.88147 0.540483 9 0.826631 9 1.125V2.25H27V1.125C27 0.826631 27.1185 0.540483 27.3295 0.329505C27.5405 0.118526 27.8266 0 28.125 0C28.4234 0 28.7095 0.118526 28.9205 0.329505C29.1315 0.540483 29.25 0.826631 29.25 1.125V2.25H31.5C32.6935 2.25 33.8381 2.72411 34.682 3.56802C35.5259 4.41193 36 5.55653 36 6.75V31.5C36 32.6935 35.5259 33.8381 34.682 34.682C33.8381 35.5259 32.6935 36 31.5 36H4.5C3.30653 36 2.16193 35.5259 1.31802 34.682C0.474106 33.8381 0 32.6935 0 31.5V6.75C0 5.55653 0.474106 4.41193 1.31802 3.56802C2.16193 2.72411 3.30653 2.25 4.5 2.25H6.75V1.125C6.75 0.826631 6.86853 0.540483 7.0795 0.329505C7.29048 0.118526 7.57663 0 7.875 0ZM2.25 9V31.5C2.25 32.0967 2.48705 32.669 2.90901 33.091C3.33097 33.5129 3.90326 33.75 4.5 33.75H31.5C32.0967 33.75 32.669 33.5129 33.091 33.091C33.5129 32.669 33.75 32.0967 33.75 31.5V9H2.25Z" fill="#555555"/>
<path d="M24.4215 16.0785C24.5263 16.183 24.6094 16.3071 24.6661 16.4438C24.7228 16.5805 24.752 16.727 24.752 16.875C24.752 17.023 24.7228 17.1695 24.6661 17.3062C24.6094 17.4429 24.5263 17.567 24.4215 17.6715L17.6715 24.4215C17.567 24.5263 17.4429 24.6094 17.3062 24.6661C17.1695 24.7228 17.023 24.752 16.875 24.752C16.727 24.752 16.5805 24.7228 16.4438 24.6661C16.3071 24.6094 16.183 24.5263 16.0785 24.4215L12.7035 21.0465C12.5989 20.9419 12.5159 20.8177 12.4593 20.6811C12.4027 20.5444 12.3736 20.3979 12.3736 20.25C12.3736 20.1021 12.4027 19.9556 12.4593 19.8189C12.5159 19.6823 12.5989 19.5581 12.7035 19.4535C12.9147 19.2423 13.2013 19.1236 13.5 19.1236C13.6479 19.1236 13.7944 19.1527 13.9311 19.2093C14.0677 19.2659 14.1919 19.3489 14.2965 19.4535L16.875 22.0343L22.8285 16.0785C22.933 15.9737 23.0571 15.8906 23.1938 15.8339C23.3305 15.7772 23.477 15.748 23.625 15.748C23.773 15.748 23.9195 15.7772 24.0562 15.8339C24.1929 15.8906 24.317 15.9737 24.4215 16.0785Z" stroke="#555555"/>
<path d="M7.875 0C8.17337 0 8.45952 0.118526 8.6705 0.329505C8.88147 0.540483 9 0.826631 9 1.125V2.25H27V1.125C27 0.826631 27.1185 0.540483 27.3295 0.329505C27.5405 0.118526 27.8266 0 28.125 0C28.4234 0 28.7095 0.118526 28.9205 0.329505C29.1315 0.540483 29.25 0.826631 29.25 1.125V2.25H31.5C32.6935 2.25 33.8381 2.72411 34.682 3.56802C35.5259 4.41193 36 5.55653 36 6.75V31.5C36 32.6935 35.5259 33.8381 34.682 34.682C33.8381 35.5259 32.6935 36 31.5 36H4.5C3.30653 36 2.16193 35.5259 1.31802 34.682C0.474106 33.8381 0 32.6935 0 31.5V6.75C0 5.55653 0.474106 4.41193 1.31802 3.56802C2.16193 2.72411 3.30653 2.25 4.5 2.25H6.75V1.125C6.75 0.826631 6.86853 0.540483 7.0795 0.329505C7.29048 0.118526 7.57663 0 7.875 0ZM2.25 9V31.5C2.25 32.0967 2.48705 32.669 2.90901 33.091C3.33097 33.5129 3.90326 33.75 4.5 33.75H31.5C32.0967 33.75 32.669 33.5129 33.091 33.091C33.5129 32.669 33.75 32.0967 33.75 31.5V9H2.25Z" stroke="#555555"/>
</svg>
