<svg width="22" height="21" viewBox="0 0 22 21" fill="none" xmlns="http://www.w3.org/2000/svg">
<path d="M18.5 1.75C18.8315 1.75 19.1495 1.8817 19.3839 2.11612C19.6183 2.35054 19.75 2.66848 19.75 3V18C19.75 18.3315 19.6183 18.6495 19.3839 18.8839C19.1495 19.1183 18.8315 19.25 18.5 19.25H3.5C3.16848 19.25 2.85054 19.1183 2.61612 18.8839C2.3817 18.6495 2.25 18.3315 2.25 18V3C2.25 2.66848 2.3817 2.35054 2.61612 2.11612C2.85054 1.8817 3.16848 1.75 3.5 1.75H18.5ZM3.5 0.5C2.83696 0.5 2.20107 0.763392 1.73223 1.23223C1.26339 1.70107 1 2.33696 1 3V18C1 18.663 1.26339 19.2989 1.73223 19.7678C2.20107 20.2366 2.83696 20.5 3.5 20.5H18.5C19.163 20.5 19.7989 20.2366 20.2678 19.7678C20.7366 19.2989 21 18.663 21 18V3C21 2.33696 20.7366 1.70107 20.2678 1.23223C19.7989 0.763392 19.163 0.5 18.5 0.5H3.5Z" fill="#FBC3CE"/>
<path d="M6.8075 6.3075C6.86556 6.2493 6.93453 6.20312 7.01046 6.17161C7.08639 6.1401 7.16779 6.12388 7.25 6.12388C7.33221 6.12388 7.41361 6.1401 7.48954 6.17161C7.56547 6.20312 7.63444 6.2493 7.6925 6.3075L11 9.61625L14.3075 6.3075C14.3656 6.24939 14.4346 6.20329 14.5105 6.17185C14.5864 6.1404 14.6678 6.12421 14.75 6.12421C14.8322 6.12421 14.9136 6.1404 14.9895 6.17185C15.0654 6.20329 15.1344 6.24939 15.1925 6.3075C15.2506 6.36561 15.2967 6.4346 15.3282 6.51052C15.3596 6.58644 15.3758 6.66782 15.3758 6.75C15.3758 6.83218 15.3596 6.91356 15.3282 6.98948C15.2967 7.0654 15.2506 7.13439 15.1925 7.1925L11.8837 10.5L15.1925 13.8075C15.2506 13.8656 15.2967 13.9346 15.3282 14.0105C15.3596 14.0864 15.3758 14.1678 15.3758 14.25C15.3758 14.3322 15.3596 14.4136 15.3282 14.4895C15.2967 14.5654 15.2506 14.6344 15.1925 14.6925C15.1344 14.7506 15.0654 14.7967 14.9895 14.8282C14.9136 14.8596 14.8322 14.8758 14.75 14.8758C14.6678 14.8758 14.5864 14.8596 14.5105 14.8282C14.4346 14.7967 14.3656 14.7506 14.3075 14.6925L11 11.3837L7.6925 14.6925C7.63439 14.7506 7.5654 14.7967 7.48948 14.8282C7.41356 14.8596 7.33218 14.8758 7.25 14.8758C7.16782 14.8758 7.08644 14.8596 7.01052 14.8282C6.9346 14.7967 6.86561 14.7506 6.8075 14.6925C6.74939 14.6344 6.70329 14.5654 6.67185 14.4895C6.6404 14.4136 6.62421 14.3322 6.62421 14.25C6.62421 14.1678 6.6404 14.0864 6.67185 14.0105C6.70329 13.9346 6.74939 13.8656 6.8075 13.8075L10.1163 10.5L6.8075 7.1925C6.7493 7.13444 6.70312 7.06547 6.67161 6.98954C6.6401 6.91361 6.62388 6.83221 6.62388 6.75C6.62388 6.66779 6.6401 6.58639 6.67161 6.51046C6.70312 6.43453 6.7493 6.36556 6.8075 6.3075Z" fill="#FBC3CE"/>
<path d="M18.5 1.75C18.8315 1.75 19.1495 1.8817 19.3839 2.11612C19.6183 2.35054 19.75 2.66848 19.75 3V18C19.75 18.3315 19.6183 18.6495 19.3839 18.8839C19.1495 19.1183 18.8315 19.25 18.5 19.25H3.5C3.16848 19.25 2.85054 19.1183 2.61612 18.8839C2.3817 18.6495 2.25 18.3315 2.25 18V3C2.25 2.66848 2.3817 2.35054 2.61612 2.11612C2.85054 1.8817 3.16848 1.75 3.5 1.75H18.5ZM3.5 0.5C2.83696 0.5 2.20107 0.763392 1.73223 1.23223C1.26339 1.70107 1 2.33696 1 3V18C1 18.663 1.26339 19.2989 1.73223 19.7678C2.20107 20.2366 2.83696 20.5 3.5 20.5H18.5C19.163 20.5 19.7989 20.2366 20.2678 19.7678C20.7366 19.2989 21 18.663 21 18V3C21 2.33696 20.7366 1.70107 20.2678 1.23223C19.7989 0.763392 19.163 0.5 18.5 0.5H3.5Z" stroke="#FBC3CE" stroke-width="0.5"/>
<path d="M6.8075 6.3075C6.86556 6.2493 6.93453 6.20312 7.01046 6.17161C7.08639 6.1401 7.16779 6.12388 7.25 6.12388C7.33221 6.12388 7.41361 6.1401 7.48954 6.17161C7.56547 6.20312 7.63444 6.2493 7.6925 6.3075L11 9.61625L14.3075 6.3075C14.3656 6.24939 14.4346 6.20329 14.5105 6.17185C14.5864 6.1404 14.6678 6.12421 14.75 6.12421C14.8322 6.12421 14.9136 6.1404 14.9895 6.17185C15.0654 6.20329 15.1344 6.24939 15.1925 6.3075C15.2506 6.36561 15.2967 6.4346 15.3282 6.51052C15.3596 6.58644 15.3758 6.66782 15.3758 6.75C15.3758 6.83218 15.3596 6.91356 15.3282 6.98948C15.2967 7.0654 15.2506 7.13439 15.1925 7.1925L11.8837 10.5L15.1925 13.8075C15.2506 13.8656 15.2967 13.9346 15.3282 14.0105C15.3596 14.0864 15.3758 14.1678 15.3758 14.25C15.3758 14.3322 15.3596 14.4136 15.3282 14.4895C15.2967 14.5654 15.2506 14.6344 15.1925 14.6925C15.1344 14.7506 15.0654 14.7967 14.9895 14.8282C14.9136 14.8596 14.8322 14.8758 14.75 14.8758C14.6678 14.8758 14.5864 14.8596 14.5105 14.8282C14.4346 14.7967 14.3656 14.7506 14.3075 14.6925L11 11.3837L7.6925 14.6925C7.63439 14.7506 7.5654 14.7967 7.48948 14.8282C7.41356 14.8596 7.33218 14.8758 7.25 14.8758C7.16782 14.8758 7.08644 14.8596 7.01052 14.8282C6.9346 14.7967 6.86561 14.7506 6.8075 14.6925C6.74939 14.6344 6.70329 14.5654 6.67185 14.4895C6.6404 14.4136 6.62421 14.3322 6.62421 14.25C6.62421 14.1678 6.6404 14.0864 6.67185 14.0105C6.70329 13.9346 6.74939 13.8656 6.8075 13.8075L10.1163 10.5L6.8075 7.1925C6.7493 7.13444 6.70312 7.06547 6.67161 6.98954C6.6401 6.91361 6.62388 6.83221 6.62388 6.75C6.62388 6.66779 6.6401 6.58639 6.67161 6.51046C6.70312 6.43453 6.7493 6.36556 6.8075 6.3075Z" stroke="#FBC3CE" stroke-width="0.5"/>
</svg>
