<svg width="56" height="56" viewBox="0 0 56 56" fill="none" xmlns="http://www.w3.org/2000/svg">
<path d="M29.125 22.6001C29.125 22.3017 29.0065 22.0156 28.7955 21.8046C28.5845 21.5936 28.2984 21.4751 28 21.4751C27.7016 21.4751 27.4155 21.5936 27.2045 21.8046C26.9935 22.0156 26.875 22.3017 26.875 22.6001V29.1251H20.125C19.8266 29.1251 19.5405 29.2436 19.3295 29.4546C19.1185 29.6656 19 29.9517 19 30.2501C19 30.5485 19.1185 30.8346 19.3295 31.0456C19.5405 31.2566 19.8266 31.3751 20.125 31.3751H28C28.2984 31.3751 28.5845 31.2566 28.7955 31.0456C29.0065 30.8346 29.125 30.5485 29.125 30.2501V22.6001Z" fill="#555555" stroke="#555555" stroke-width="0.5"/>
<path d="M24.625 12.25C24.625 11.9516 24.7435 11.6655 24.9545 11.4545C25.1655 11.2435 25.4516 11.125 25.75 11.125H30.25C30.5484 11.125 30.8345 11.2435 31.0455 11.4545C31.2565 11.6655 31.375 11.9516 31.375 12.25C31.375 12.5484 31.2565 12.8345 31.0455 13.0455C30.8345 13.2565 30.5484 13.375 30.25 13.375V14.6575C33.31 15.0985 36.0865 16.4125 38.314 18.3475C38.3229 18.3376 38.3319 18.3279 38.341 18.3183L39.1375 17.5217L38.341 16.7275C38.1297 16.5166 38.0109 16.2303 38.0107 15.9318C38.0105 15.6333 38.1289 15.3469 38.3399 15.1356C38.5508 14.9244 38.837 14.8056 39.1356 14.8054C39.4341 14.8052 39.7205 14.9236 39.9317 15.1345L43.1132 18.3183C43.2207 18.422 43.3064 18.5462 43.3654 18.6834C43.4243 18.8207 43.4553 18.9683 43.4566 19.1177C43.4579 19.2671 43.4295 19.4152 43.3729 19.5534C43.3163 19.6917 43.2328 19.8173 43.1272 19.9229C43.0216 20.0286 42.8959 20.1121 42.7577 20.1687C42.6194 20.2252 42.4713 20.2537 42.3219 20.2524C42.1725 20.2511 42.0249 20.2201 41.8877 20.1611C41.7504 20.1022 41.6263 20.0164 41.5225 19.909L40.7282 19.1125L39.9317 19.909C39.9221 19.9182 39.9124 19.9272 39.9025 19.936C42.1934 22.5805 43.5385 25.9126 43.7255 29.4065C43.9126 32.9003 42.931 36.3569 40.9355 39.231C38.9401 42.105 36.0444 44.2328 32.7055 45.2785C29.3666 46.3243 25.7746 46.2285 22.4962 45.0062C19.2178 43.784 16.4397 41.5049 14.6002 38.5286C12.7608 35.5523 11.9648 32.0483 12.3378 28.5694C12.7108 25.0905 14.2316 21.8348 16.6602 19.3161C19.0888 16.7975 22.287 15.1592 25.75 14.6598V13.375C25.4516 13.375 25.1655 13.2565 24.9545 13.0455C24.7435 12.8345 24.625 12.5484 24.625 12.25ZM28 16.75C26.2271 16.7501 24.4717 17.0995 22.8338 17.7781C21.196 18.4566 19.7079 19.4512 18.4544 20.7049C15.9228 23.2368 14.5008 26.6707 14.5011 30.2511C14.5014 33.8315 15.924 37.2652 18.456 39.7967C20.9879 42.3283 24.4218 43.7503 28.0022 43.75C31.5827 43.7497 35.0163 42.3271 37.5478 39.7951C40.0794 37.2632 41.5014 33.8293 41.5011 30.2489C41.5008 26.6685 40.0782 23.2348 37.5463 20.7033C35.0143 18.1717 31.5804 16.7497 28 16.75Z" fill="#555555" stroke="#555555" stroke-width="0.5"/>
</svg>
