<svg width="28" height="24" viewBox="0 0 28 24" fill="none" xmlns="http://www.w3.org/2000/svg">
<path fill-rule="evenodd" clip-rule="evenodd" d="M0.5 22.125C0.5 21.8266 0.618527 21.5405 0.829505 21.3295C1.04048 21.1185 1.32663 21 1.625 21H17.375C17.6734 21 17.9595 21.1185 18.1705 21.3295C18.3815 21.5405 18.5 21.8266 18.5 22.125C18.5 22.4234 18.3815 22.7095 18.1705 22.9205C17.9595 23.1315 17.6734 23.25 17.375 23.25H1.625C1.32663 23.25 1.04048 23.1315 0.829505 22.9205C0.618527 22.7095 0.5 22.4234 0.5 22.125ZM0.5 15.375C0.5 15.0766 0.618527 14.7905 0.829505 14.5795C1.04048 14.3685 1.32663 14.25 1.625 14.25H26.375C26.6734 14.25 26.9595 14.3685 27.1705 14.5795C27.3815 14.7905 27.5 15.0766 27.5 15.375C27.5 15.6734 27.3815 15.9595 27.1705 16.1705C26.9595 16.3815 26.6734 16.5 26.375 16.5H1.625C1.32663 16.5 1.04048 16.3815 0.829505 16.1705C0.618527 15.9595 0.5 15.6734 0.5 15.375ZM0.5 8.625C0.5 8.32663 0.618527 8.04048 0.829505 7.8295C1.04048 7.61853 1.32663 7.5 1.625 7.5H17.375C17.6734 7.5 17.9595 7.61853 18.1705 7.8295C18.3815 8.04048 18.5 8.32663 18.5 8.625C18.5 8.92337 18.3815 9.20952 18.1705 9.4205C17.9595 9.63147 17.6734 9.75 17.375 9.75H1.625C1.32663 9.75 1.04048 9.63147 0.829505 9.4205C0.618527 9.20952 0.5 8.92337 0.5 8.625ZM0.5 1.875C0.5 1.57663 0.618527 1.29048 0.829505 1.07951C1.04048 0.868527 1.32663 0.75 1.625 0.75H26.375C26.6734 0.75 26.9595 0.868527 27.1705 1.07951C27.3815 1.29048 27.5 1.57663 27.5 1.875C27.5 2.17337 27.3815 2.45952 27.1705 2.67049C26.9595 2.88147 26.6734 3 26.375 3H1.625C1.32663 3 1.04048 2.88147 0.829505 2.67049C0.618527 2.45952 0.5 2.17337 0.5 1.875Z" fill="#555555" stroke="#555555" stroke-width="0.5"/>
</svg>
