<svg width="36" height="36" viewBox="0 0 36 36" fill="none" xmlns="http://www.w3.org/2000/svg">
<path d="M9.78365 18.7844C9.70555 18.7063 9.70555 18.5797 9.78365 18.5015L11.4294 16.8558C11.5075 16.7777 11.6341 16.7777 11.7122 16.8558L15.9294 21.073C16.0075 21.1511 16.1341 21.1511 16.2122 21.073L25.5722 11.713C25.6503 11.6349 25.777 11.6349 25.8551 11.713L27.5008 13.3587C27.5789 13.4368 27.5789 13.5634 27.5008 13.6415L16.2122 24.9301C16.1341 25.0082 16.0075 25.0082 15.9294 24.9301L9.78365 18.7844Z" fill="#555555"/>
<path d="M18.6422 35.8001C18.6422 35.9106 18.7324 36.0002 18.8428 35.999C23.5265 35.9466 27.399 34.0563 30.7273 30.728C34.1029 27.3524 35.9994 22.774 35.9994 18.0001C35.9994 13.2262 34.1029 8.64785 30.7273 5.27219C27.399 1.94393 23.5265 0.053659 18.8428 0.00123334C18.7324 -2.95247e-06 18.6422 0.089656 18.6422 0.200113V2.37154C18.6422 2.482 18.7324 2.57141 18.8428 2.57281C22.8539 2.62368 26.0869 4.20332 28.9416 7.05794C31.8436 9.95998 33.474 13.896 33.4739 18.0001C33.4739 22.1042 31.8436 26.0402 28.9415 28.9423C26.0869 31.7969 22.8539 33.3765 18.8428 33.4274C18.7324 33.4288 18.6422 33.5182 18.6422 33.6287V35.8001Z" fill="#555555"/>
<path d="M17.3513 35.794C17.3513 35.9045 17.2616 35.9941 17.1511 35.9929C14.8905 35.9671 13.2277 35.5023 11.1059 34.6234C8.98416 33.7446 7.45543 32.8727 5.83732 31.2909C5.75833 31.2137 5.75832 31.0869 5.83642 31.0088L7.37646 29.4688C7.45456 29.3906 7.58116 29.3908 7.6603 29.4679C9.03522 30.8066 10.2836 31.4926 12.0924 32.2418C13.9012 32.9911 15.2347 33.3952 17.1512 33.4212C17.2616 33.4227 17.3513 33.5121 17.3513 33.6226L17.3513 35.794Z" fill="#555555"/>
<path d="M4.93096 30.1047C4.85286 30.1828 4.72602 30.1828 4.64881 30.1038C3.06999 28.4886 2.24838 27.0101 1.36954 24.8884C0.490689 22.7667 0.0262171 21.1038 0.000501325 18.8431C-0.000755092 18.7327 0.0889146 18.643 0.199372 18.643H2.3708C2.48126 18.643 2.57065 18.7326 2.57212 18.8431C2.5976 20.7607 2.99308 22.0955 3.74277 23.9054C4.49245 25.7153 5.12928 26.9149 6.46537 28.2873C6.54242 28.3664 6.54262 28.493 6.46451 28.5712L4.93096 30.1047Z" fill="#555555"/>
<path d="M0.199372 17.3633C0.0889148 17.3633 -0.000755079 17.2736 0.000501362 17.1632C0.0262176 14.9025 0.49069 13.2397 1.36954 11.118C2.24838 8.99628 3.06996 7.51762 4.64878 5.90241C4.72599 5.82343 4.85282 5.8234 4.93093 5.90149L6.46342 7.4338C6.54154 7.5119 6.54135 7.63852 6.46429 7.71767C5.12803 9.09023 4.49089 10.2902 3.74113 12.1003C2.99135 13.9105 2.59748 15.2453 2.57211 17.1632C2.57065 17.2737 2.48126 17.3633 2.3708 17.3633H0.199372Z" fill="#555555"/>
<path d="M5.83628 4.98405C5.75817 4.90595 5.75818 4.77912 5.83717 4.7019C7.45526 3.12019 8.98367 2.24914 11.1054 1.37028C13.2272 0.491432 14.89 0.0269603 17.1506 0.00124471C17.2611 -1.17005e-05 17.3508 0.089658 17.3508 0.200115V2.37154C17.3508 2.482 17.2611 2.57139 17.1507 2.57287C15.2336 2.59864 13.8996 2.99826 12.0902 3.74772C10.2808 4.4972 9.03248 5.18286 7.65718 6.52191C7.57804 6.59897 7.45144 6.59915 7.37333 6.52105L5.83628 4.98405Z" fill="#555555"/>
</svg>
