<svg width="20" height="19" viewBox="0 0 20 19" fill="none" xmlns="http://www.w3.org/2000/svg">
<path d="M2.10486 9.50101C2.10467 8.23058 2.43891 6.98249 3.07399 5.88219C3.70908 4.78189 4.62262 3.86817 5.7228 3.23287C6.82297 2.59757 8.071 2.26308 9.34142 2.26303C10.6119 2.26298 11.8599 2.59737 12.9601 3.23259C13.1112 3.31845 13.29 3.3411 13.4577 3.29558C13.6253 3.25006 13.7682 3.14007 13.855 2.98962C13.9419 2.83917 13.9657 2.66047 13.9213 2.49251C13.8769 2.32455 13.7679 2.18098 13.618 2.09311C11.9876 1.15177 10.0921 0.77472 8.2255 1.02043C6.35892 1.26614 4.62558 2.12088 3.29428 3.45209C1.96298 4.7833 1.10813 6.5166 0.862297 8.38316C0.616468 10.2497 0.9934 12.1452 1.93464 13.7758C2.87587 15.4063 4.32881 16.6806 6.06812 17.4012C7.80743 18.1219 9.73592 18.2484 11.5545 17.7613C13.3731 17.2742 14.9801 16.2007 16.1264 14.7072C17.2727 13.2137 17.8941 11.3837 17.8943 9.50101C17.8943 9.32652 17.825 9.15919 17.7016 9.03581C17.5783 8.91243 17.4109 8.84311 17.2364 8.84311C17.062 8.84311 16.8946 8.91243 16.7712 9.03581C16.6479 9.15919 16.5786 9.32652 16.5786 9.50101C16.5786 11.4203 15.8161 13.2611 14.4589 14.6182C13.1018 15.9754 11.261 16.7378 9.34171 16.7378C7.42238 16.7378 5.58166 15.9754 4.22449 14.6182C2.86732 13.2611 2.10486 11.4203 2.10486 9.50101Z" fill="#D3FFDF"/>
<path d="M19.0178 3.38796C19.079 3.32679 19.1275 3.25417 19.1606 3.17425C19.1937 3.09433 19.2107 3.00867 19.2107 2.92217C19.2107 2.83566 19.1937 2.75 19.1606 2.67008C19.1275 2.59016 19.079 2.51755 19.0178 2.45638C18.9566 2.39521 18.884 2.34669 18.8041 2.31358C18.7242 2.28048 18.6385 2.26344 18.552 2.26344C18.4655 2.26344 18.3799 2.28048 18.2999 2.31358C18.22 2.34669 18.1474 2.39521 18.0862 2.45638L9.3415 11.2024L5.85992 7.71953C5.79875 7.65837 5.72613 7.60984 5.64621 7.57674C5.56629 7.54364 5.48063 7.5266 5.39413 7.5266C5.30762 7.5266 5.22197 7.54364 5.14205 7.57674C5.06212 7.60984 4.98951 7.65837 4.92834 7.71953C4.86717 7.7807 4.81865 7.85332 4.78555 7.93324C4.75244 8.01316 4.7354 8.09882 4.7354 8.18532C4.7354 8.27183 4.75244 8.35749 4.78555 8.43741C4.81865 8.51733 4.86717 8.58995 4.92834 8.65111L8.87571 12.5985C8.93682 12.6597 9.00942 12.7084 9.08935 12.7415C9.16928 12.7747 9.25496 12.7918 9.3415 12.7918C9.42803 12.7918 9.51372 12.7747 9.59365 12.7415C9.67357 12.7084 9.74617 12.6597 9.80729 12.5985L19.0178 3.38796Z" fill="#D3FFDF"/>
<path d="M2.10486 9.50101C2.10467 8.23058 2.43891 6.98249 3.07399 5.88219C3.70908 4.78189 4.62262 3.86817 5.7228 3.23287C6.82297 2.59757 8.071 2.26308 9.34142 2.26303C10.6119 2.26298 11.8599 2.59737 12.9601 3.23259C13.1112 3.31845 13.29 3.3411 13.4577 3.29558C13.6253 3.25006 13.7682 3.14007 13.855 2.98962C13.9419 2.83917 13.9657 2.66047 13.9213 2.49251C13.8769 2.32455 13.7679 2.18098 13.618 2.09311C11.9876 1.15177 10.0921 0.77472 8.2255 1.02043C6.35892 1.26614 4.62558 2.12088 3.29428 3.45209C1.96298 4.7833 1.10813 6.5166 0.862297 8.38316C0.616468 10.2497 0.9934 12.1452 1.93464 13.7758C2.87587 15.4063 4.32881 16.6806 6.06812 17.4012C7.80743 18.1219 9.73592 18.2484 11.5545 17.7613C13.3731 17.2742 14.9801 16.2007 16.1264 14.7072C17.2727 13.2137 17.8941 11.3837 17.8943 9.50101C17.8943 9.32652 17.825 9.15919 17.7016 9.03581C17.5783 8.91243 17.4109 8.84311 17.2364 8.84311C17.062 8.84311 16.8946 8.91243 16.7712 9.03581C16.6479 9.15919 16.5786 9.32652 16.5786 9.50101C16.5786 11.4203 15.8161 13.2611 14.4589 14.6182C13.1018 15.9754 11.261 16.7378 9.34171 16.7378C7.42238 16.7378 5.58166 15.9754 4.22449 14.6182C2.86732 13.2611 2.10486 11.4203 2.10486 9.50101Z" stroke="#D3FFDF" stroke-width="0.5"/>
<path d="M19.0178 3.38796C19.079 3.32679 19.1275 3.25417 19.1606 3.17425C19.1937 3.09433 19.2107 3.00867 19.2107 2.92217C19.2107 2.83566 19.1937 2.75 19.1606 2.67008C19.1275 2.59016 19.079 2.51755 19.0178 2.45638C18.9566 2.39521 18.884 2.34669 18.8041 2.31358C18.7242 2.28048 18.6385 2.26344 18.552 2.26344C18.4655 2.26344 18.3799 2.28048 18.2999 2.31358C18.22 2.34669 18.1474 2.39521 18.0862 2.45638L9.3415 11.2024L5.85992 7.71953C5.79875 7.65837 5.72613 7.60984 5.64621 7.57674C5.56629 7.54364 5.48063 7.5266 5.39413 7.5266C5.30762 7.5266 5.22197 7.54364 5.14205 7.57674C5.06212 7.60984 4.98951 7.65837 4.92834 7.71953C4.86717 7.7807 4.81865 7.85332 4.78555 7.93324C4.75244 8.01316 4.7354 8.09882 4.7354 8.18532C4.7354 8.27183 4.75244 8.35749 4.78555 8.43741C4.81865 8.51733 4.86717 8.58995 4.92834 8.65111L8.87571 12.5985C8.93682 12.6597 9.00942 12.7084 9.08935 12.7415C9.16928 12.7747 9.25496 12.7918 9.3415 12.7918C9.42803 12.7918 9.51372 12.7747 9.59365 12.7415C9.67357 12.7084 9.74617 12.6597 9.80729 12.5985L19.0178 3.38796Z" stroke="#D3FFDF" stroke-width="0.5"/>
</svg>
