<svg width="32" height="36" viewBox="0 0 32 36" fill="none" xmlns="http://www.w3.org/2000/svg">
<path d="M17.1269 12.0382C17.1269 11.7399 17.0084 11.4537 16.7974 11.2427C16.5865 11.0318 16.3003 10.9132 16.0019 10.9132C15.7036 10.9132 15.4174 11.0318 15.2064 11.2427C14.9955 11.4537 14.8769 11.7399 14.8769 12.0382V18.5632H8.12694C7.82857 18.5632 7.54242 18.6818 7.33144 18.8927C7.12047 19.1037 7.00194 19.3899 7.00194 19.6882C7.00194 19.9866 7.12047 20.2727 7.33144 20.4837C7.54242 20.6947 7.82857 20.8132 8.12694 20.8132H16.0019C16.3003 20.8132 16.5865 20.6947 16.7974 20.4837C17.0084 20.2727 17.1269 19.9866 17.1269 19.6882V12.0382Z" fill="#555555"/>
<path d="M12.6269 1.68823C12.6269 1.38986 12.7455 1.10372 12.9564 0.892737C13.1674 0.681759 13.4536 0.563232 13.7519 0.563232H18.2519C18.5503 0.563232 18.8365 0.681759 19.0474 0.892737C19.2584 1.10372 19.3769 1.38986 19.3769 1.68823C19.3769 1.9866 19.2584 2.27275 19.0474 2.48373C18.8365 2.69471 18.5503 2.81323 18.2519 2.81323V4.09573C21.3119 4.53673 24.0884 5.85073 26.3159 7.78573C26.3248 7.77587 26.3338 7.76612 26.3429 7.75648L27.1394 6.95998L26.3429 6.16573C26.1317 5.95479 26.0129 5.66856 26.0127 5.37003C26.0125 5.07149 26.1309 4.7851 26.3418 4.57386C26.5528 4.36261 26.839 4.24382 27.1375 4.24361C27.4361 4.2434 27.7224 4.36179 27.9337 4.57273L31.1152 7.75648C31.2226 7.86026 31.3083 7.9844 31.3673 8.12165C31.4263 8.25891 31.4573 8.40653 31.4586 8.55591C31.4599 8.70528 31.4314 8.85342 31.3749 8.99168C31.3183 9.12994 31.2348 9.25555 31.1291 9.36118C31.0235 9.46681 30.8979 9.55034 30.7596 9.60691C30.6214 9.66347 30.4732 9.69194 30.3239 9.69064C30.1745 9.68934 30.0269 9.65831 29.8896 9.59935C29.7524 9.54039 29.6282 9.45468 29.5244 9.34723L28.7302 8.55073L27.9337 9.34723C27.9241 9.3564 27.9143 9.3654 27.9044 9.37423C30.1953 12.0188 31.5404 15.3509 31.7275 18.8447C31.9146 22.3385 30.9329 25.7952 28.9375 28.6692C26.942 31.5432 24.0464 33.671 20.7075 34.7168C17.3686 35.7625 13.7765 35.6667 10.4981 34.4445C7.21971 33.2222 4.44161 30.9432 2.60219 27.9669C0.762773 24.9905 -0.0332309 21.4865 0.339784 18.0076C0.712799 14.5287 2.23359 11.273 4.6622 8.75437C7.0908 6.23569 10.2889 4.59739 13.7519 4.09798V2.81323C13.4536 2.81323 13.1674 2.69471 12.9564 2.48373C12.7455 2.27275 12.6269 1.9866 12.6269 1.68823ZM16.0019 6.18823C14.2291 6.18838 12.4736 6.53771 10.8358 7.21629C9.19796 7.89486 7.70981 8.88939 6.45633 10.1431C3.9248 12.675 2.50277 16.1089 2.50306 19.6894C2.50336 23.2698 3.92597 26.7034 6.45792 29.235C8.98987 31.7665 12.4238 33.1885 16.0042 33.1882C19.5846 33.1879 23.0183 31.7653 25.5498 29.2334C28.0813 26.7014 29.5034 23.2675 29.5031 19.6871C29.5028 16.1067 28.0802 12.673 25.5482 10.1415C23.0163 7.60996 19.5824 6.18793 16.0019 6.18823Z" fill="#555555"/>
<path d="M17.1269 12.0382C17.1269 11.7399 17.0084 11.4537 16.7974 11.2427C16.5865 11.0318 16.3003 10.9132 16.0019 10.9132C15.7036 10.9132 15.4174 11.0318 15.2064 11.2427C14.9955 11.4537 14.8769 11.7399 14.8769 12.0382V18.5632H8.12694C7.82857 18.5632 7.54242 18.6818 7.33144 18.8927C7.12047 19.1037 7.00194 19.3899 7.00194 19.6882C7.00194 19.9866 7.12047 20.2727 7.33144 20.4837C7.54242 20.6947 7.82857 20.8132 8.12694 20.8132H16.0019C16.3003 20.8132 16.5865 20.6947 16.7974 20.4837C17.0084 20.2727 17.1269 19.9866 17.1269 19.6882V12.0382Z" stroke="#555555" stroke-width="0.5"/>
<path d="M12.6269 1.68823C12.6269 1.38986 12.7455 1.10372 12.9564 0.892737C13.1674 0.681759 13.4536 0.563232 13.7519 0.563232H18.2519C18.5503 0.563232 18.8365 0.681759 19.0474 0.892737C19.2584 1.10372 19.3769 1.38986 19.3769 1.68823C19.3769 1.9866 19.2584 2.27275 19.0474 2.48373C18.8365 2.69471 18.5503 2.81323 18.2519 2.81323V4.09573C21.3119 4.53673 24.0884 5.85073 26.3159 7.78573C26.3248 7.77587 26.3338 7.76612 26.3429 7.75648L27.1394 6.95998L26.3429 6.16573C26.1317 5.95479 26.0129 5.66856 26.0127 5.37003C26.0125 5.07149 26.1309 4.7851 26.3418 4.57386C26.5528 4.36261 26.839 4.24382 27.1375 4.24361C27.4361 4.2434 27.7224 4.36179 27.9337 4.57273L31.1152 7.75648C31.2226 7.86026 31.3083 7.9844 31.3673 8.12165C31.4263 8.25891 31.4573 8.40653 31.4586 8.55591C31.4599 8.70528 31.4314 8.85342 31.3749 8.99168C31.3183 9.12994 31.2348 9.25555 31.1291 9.36118C31.0235 9.46681 30.8979 9.55034 30.7596 9.60691C30.6214 9.66347 30.4732 9.69194 30.3239 9.69064C30.1745 9.68934 30.0269 9.65831 29.8896 9.59935C29.7524 9.54039 29.6282 9.45468 29.5244 9.34723L28.7302 8.55073L27.9337 9.34723C27.9241 9.3564 27.9143 9.3654 27.9044 9.37423C30.1953 12.0188 31.5404 15.3509 31.7275 18.8447C31.9146 22.3385 30.9329 25.7952 28.9375 28.6692C26.942 31.5432 24.0464 33.671 20.7075 34.7168C17.3686 35.7625 13.7765 35.6667 10.4981 34.4445C7.21971 33.2222 4.44161 30.9432 2.60219 27.9669C0.762773 24.9905 -0.0332309 21.4865 0.339784 18.0076C0.712799 14.5287 2.23359 11.273 4.6622 8.75437C7.0908 6.23569 10.2889 4.59739 13.7519 4.09798V2.81323C13.4536 2.81323 13.1674 2.69471 12.9564 2.48373C12.7455 2.27275 12.6269 1.9866 12.6269 1.68823ZM16.0019 6.18823C14.2291 6.18838 12.4736 6.53771 10.8358 7.21629C9.19796 7.89486 7.70981 8.88939 6.45633 10.1431C3.9248 12.675 2.50277 16.1089 2.50306 19.6894C2.50336 23.2698 3.92597 26.7034 6.45792 29.235C8.98987 31.7665 12.4238 33.1885 16.0042 33.1882C19.5846 33.1879 23.0183 31.7653 25.5498 29.2334C28.0813 26.7014 29.5034 23.2675 29.5031 19.6871C29.5028 16.1067 28.0802 12.673 25.5482 10.1415C23.0163 7.60996 19.5824 6.18793 16.0019 6.18823Z" stroke="#555555" stroke-width="0.5"/>
</svg>
